<?xml version="1.0" encoding="UTF-8" standalone="no"?>
<svg
   xmlns:dc="http://purl.org/dc/elements/1.1/"
   xmlns:cc="http://creativecommons.org/ns#"
   xmlns:rdf="http://www.w3.org/1999/02/22-rdf-syntax-ns#"
   xmlns:svg="http://www.w3.org/2000/svg"
   xmlns="http://www.w3.org/2000/svg"
   viewBox="0 0 251.1724 59.967999"
   height="59.967999"
   width="251.17239"
   xml:space="preserve"
   id="svg2"
   version="1.1"><metadata
     id="metadata8"><rdf:RDF><cc:Work
         rdf:about=""><dc:format>image/svg+xml</dc:format><dc:type
           rdf:resource="http://purl.org/dc/dcmitype/StillImage" /></cc:Work></rdf:RDF></metadata><defs
     id="defs6"><clipPath
       id="clipPath18"
       clipPathUnits="userSpaceOnUse"><path
         id="path16"
         d="M 0,47 H 203 V 0 H 0 Z" /></clipPath></defs><g
     transform="matrix(1.3333333,0,0,-1.3333333,-8.8274664,61.333865)"
     id="g10"><g
       id="g12"><g
         clip-path="url(#clipPath18)"
         id="g14"><g
           transform="translate(68.127,7.3369)"
           id="g20"><path
             id="path22"
             style="fill:#00b027;fill-opacity:1;fill-rule:nonzero;stroke:none"
             d="m 0,0 c -0.602,-0.523 -1.26,-0.892 -1.974,-1.105 -0.714,-0.213 -1.43,-0.287 -2.147,-0.217 -0.717,0.069 -1.411,0.28 -2.082,0.633 -0.67,0.352 -1.271,0.834 -1.801,1.444 l -0.021,0.024 c -0.523,0.602 -0.913,1.259 -1.168,1.973 -0.256,0.713 -0.372,1.434 -0.348,2.161 0.024,0.729 0.192,1.435 0.503,2.119 0.312,0.686 0.773,1.293 1.383,1.823 0.398,0.347 0.784,0.622 1.158,0.825 0.373,0.203 0.743,0.356 1.109,0.461 0.367,0.104 0.728,0.169 1.085,0.193 0.357,0.024 0.726,0.031 1.108,0.02 L -3.223,9.795 C -3.551,9.81 -3.881,9.809 -4.215,9.79 -4.548,9.771 -4.889,9.715 -5.235,9.62 -5.582,9.526 -5.929,9.388 -6.278,9.206 -6.627,9.024 -6.98,8.777 -7.338,8.467 -7.884,7.993 -8.294,7.45 -8.57,6.84 -8.845,6.229 -8.993,5.593 -9.012,4.934 c -0.02,-0.66 0.087,-1.317 0.32,-1.971 0.233,-0.654 0.59,-1.258 1.071,-1.811 L -7.6,1.128 c 0.481,-0.554 1.029,-0.991 1.645,-1.313 0.615,-0.322 1.253,-0.517 1.913,-0.586 0.66,-0.07 1.313,-0.008 1.961,0.183 0.647,0.192 1.24,0.521 1.776,0.987 0.667,0.58 1.132,1.212 1.394,1.897 0.262,0.684 0.413,1.389 0.457,2.111 L 2.083,4.382 C 2.056,4.001 2.004,3.621 1.928,3.24 1.852,2.859 1.732,2.484 1.569,2.114 1.405,1.743 1.196,1.38 0.942,1.023 0.688,0.666 0.374,0.325 0,0" /></g><g
           transform="translate(79.5488,5.6201)"
           id="g24"><path
             id="path26"
             style="fill:#00b027;fill-opacity:1;fill-rule:nonzero;stroke:none"
             d="M 0,0 C 0.757,0 1.446,0.144 2.068,0.429 2.689,0.714 3.222,1.1 3.666,1.585 4.109,2.07 4.455,2.636 4.703,3.282 4.952,3.929 5.077,4.608 5.077,5.319 v 0.033 c 0,0.711 -0.125,1.39 -0.374,2.037 C 4.455,8.035 4.106,8.604 3.657,9.095 3.208,9.585 2.67,9.976 2.043,10.267 c -0.626,0.291 -1.318,0.436 -2.075,0.436 -0.758,0 -1.449,-0.142 -2.076,-0.429 C -2.736,9.989 -3.271,9.604 -3.714,9.119 -4.158,8.634 -4.504,8.068 -4.752,7.421 -5.001,6.774 -5.125,6.096 -5.125,5.384 V 5.352 c 0,-0.711 0.124,-1.391 0.373,-2.038 C -4.504,2.668 -4.152,2.1 -3.698,1.609 -3.244,1.118 -2.703,0.728 -2.076,0.437 -1.449,0.146 -0.757,0 0,0 m -0.032,-0.501 c -0.863,0 -1.639,0.159 -2.328,0.478 -0.69,0.317 -1.284,0.746 -1.779,1.285 -0.496,0.538 -0.876,1.158 -1.14,1.859 -0.264,0.7 -0.396,1.439 -0.396,2.215 v 0.032 c 0,0.777 0.135,1.514 0.404,2.215 0.27,0.7 0.649,1.32 1.14,1.859 0.49,0.539 1.084,0.967 1.778,1.286 0.696,0.317 1.475,0.476 2.337,0.476 0.851,0 1.624,-0.159 2.32,-0.476 C 2.999,10.409 3.594,9.981 4.09,9.442 4.586,8.903 4.966,8.283 5.23,7.583 5.494,6.882 5.626,6.145 5.626,5.368 c 0.021,0 0.021,-0.011 0,-0.032 C 5.626,4.56 5.491,3.821 5.222,3.121 4.953,2.42 4.573,1.8 4.082,1.262 3.591,0.723 2.996,0.294 2.295,-0.023 1.595,-0.342 0.819,-0.501 -0.032,-0.501" /></g><g
           transform="translate(91.27,16.6309)"
           id="g28"><path
             id="path30"
             style="fill:#00b027;fill-opacity:1;fill-rule:nonzero;stroke:none"
             d="M 0,0 H 0.5 L 8.763,-10.38 V 0 h 0.55 V -11.317 H 8.877 L 0.55,-0.857 v -10.46 H 0 Z" /></g><g
           transform="translate(110.9619,5.1514)"
           id="g32"><path
             id="path34"
             style="fill:#00b027;fill-opacity:1;fill-rule:nonzero;stroke:none"
             d="m 0,0 c -0.884,0 -1.695,0.154 -2.433,0.461 -0.739,0.308 -1.431,0.757 -2.078,1.351 l 0.372,0.403 c 0.604,-0.571 1.243,-1 1.916,-1.285 0.673,-0.285 1.425,-0.428 2.255,-0.428 0.486,0 0.927,0.061 1.326,0.185 0.399,0.125 0.741,0.299 1.027,0.526 0.286,0.226 0.504,0.49 0.655,0.792 0.15,0.302 0.226,0.631 0.226,0.986 v 0.032 c 0,0.334 -0.054,0.631 -0.162,0.89 C 2.996,4.172 2.811,4.403 2.547,4.608 2.282,4.812 1.924,4.999 1.472,5.166 1.019,5.333 0.453,5.486 -0.227,5.627 -0.916,5.767 -1.506,5.929 -1.996,6.111 -2.487,6.295 -2.886,6.508 -3.192,6.75 -3.5,6.993 -3.724,7.272 -3.864,7.591 c -0.14,0.318 -0.21,0.681 -0.21,1.092 v 0.032 c 0,0.398 0.092,0.775 0.275,1.132 0.183,0.355 0.437,0.668 0.76,0.937 0.323,0.27 0.708,0.48 1.155,0.63 0.447,0.151 0.941,0.227 1.48,0.227 0.776,0 1.476,-0.116 2.102,-0.348 0.624,-0.231 1.206,-0.558 1.746,-0.978 L 3.104,9.879 C 2.048,10.72 0.867,11.14 -0.437,11.14 -0.899,11.14 -1.323,11.075 -1.705,10.945 -2.088,10.816 -2.414,10.641 -2.684,10.42 -2.953,10.199 -3.16,9.945 -3.306,9.66 -3.451,9.375 -3.524,9.075 -3.524,8.763 V 8.73 c 0,-0.323 0.053,-0.614 0.162,-0.873 0.107,-0.258 0.293,-0.493 0.557,-0.703 0.264,-0.21 0.622,-0.398 1.076,-0.565 C -1.277,6.421 -0.706,6.268 -0.016,6.128 0.685,5.987 1.28,5.823 1.771,5.635 2.261,5.446 2.657,5.228 2.959,4.979 3.261,4.731 3.479,4.452 3.613,4.14 3.748,3.826 3.815,3.471 3.815,3.072 V 3.04 C 3.815,2.598 3.724,2.193 3.541,1.827 3.357,1.461 3.102,1.14 2.772,0.865 2.444,0.591 2.045,0.378 1.576,0.227 1.107,0.076 0.582,0 0,0" /></g><g
           transform="translate(125.2051,5.1357)"
           id="g36"><path
             id="path38"
             style="fill:#00b027;fill-opacity:1;fill-rule:nonzero;stroke:none"
             d="m 0,0 c -0.679,0 -1.301,0.107 -1.867,0.323 -0.566,0.215 -1.051,0.533 -1.455,0.954 -0.405,0.42 -0.72,0.946 -0.946,1.577 -0.226,0.63 -0.339,1.366 -0.339,2.207 v 6.434 h 0.549 V 5.093 c 0,-0.755 0.097,-1.418 0.291,-1.989 0.195,-0.572 0.469,-1.051 0.825,-1.439 0.356,-0.388 0.784,-0.679 1.285,-0.873 0.502,-0.194 1.059,-0.291 1.674,-0.291 0.614,0 1.169,0.094 1.665,0.283 0.496,0.189 0.919,0.474 1.269,0.857 0.35,0.382 0.619,0.857 0.808,1.422 0.189,0.566 0.283,1.232 0.283,1.998 v 6.434 h 0.55 V 5.108 C 4.592,4.268 4.481,3.526 4.261,2.886 4.039,2.244 3.727,1.711 3.322,1.285 2.919,0.859 2.434,0.538 1.868,0.323 1.302,0.107 0.68,0 0,0" /></g><g
           transform="translate(136.2158,16.6309)"
           id="g40"><path
             id="path42"
             style="fill:#00b027;fill-opacity:1;fill-rule:nonzero;stroke:none"
             d="m 0,0 h 0.549 v -10.816 h 6.823 v -0.501 H 0 Z" /></g><g
           transform="translate(152.0752,16.1289)"
           id="g44"><path
             id="path46"
             style="fill:#00b027;fill-opacity:1;fill-rule:nonzero;stroke:none"
             d="M 0,0 H -4.025 V 0.502 H 4.592 V 0 H 0.55 V -10.815 H 0 Z" /></g><path
           id="path48"
           style="fill:#00b027;fill-opacity:1;fill-rule:nonzero;stroke:none"
           d="m 162.293,16.631 h 0.55 V 5.314 h -0.55 z" /><g
           transform="translate(169.5527,16.6309)"
           id="g50"><path
             id="path52"
             style="fill:#00b027;fill-opacity:1;fill-rule:nonzero;stroke:none"
             d="M 0,0 H 0.5 L 8.763,-10.38 V 0 h 0.55 V -11.317 H 8.876 L 0.55,-0.857 v -10.46 H 0 Z" /></g><g
           transform="translate(190.5859,5.1191)"
           id="g54"><path
             id="path56"
             style="fill:#00b027;fill-opacity:1;fill-rule:nonzero;stroke:none"
             d="m 0,0 c -0.895,0 -1.689,0.154 -2.385,0.461 -0.694,0.308 -1.282,0.727 -1.761,1.261 -0.48,0.534 -0.847,1.15 -1.1,1.851 -0.253,0.7 -0.38,1.449 -0.38,2.247 v 0.033 c 0,0.754 0.132,1.485 0.396,2.191 0.263,0.705 0.637,1.331 1.122,1.875 0.483,0.544 1.07,0.978 1.758,1.302 0.689,0.323 1.458,0.484 2.309,0.484 0.44,0 0.845,-0.032 1.21,-0.097 0.366,-0.064 0.711,-0.159 1.033,-0.283 0.323,-0.124 0.627,-0.277 0.912,-0.46 0.285,-0.183 0.568,-0.394 0.848,-0.631 L 3.605,9.813 C 3.357,10.019 3.104,10.207 2.846,10.38 2.587,10.552 2.31,10.697 2.014,10.816 1.717,10.935 1.398,11.029 1.06,11.1 c -0.34,0.069 -0.72,0.104 -1.14,0.104 -0.755,0 -1.44,-0.147 -2.054,-0.444 C -2.748,10.464 -3.273,10.071 -3.71,9.582 -4.146,9.092 -4.483,8.524 -4.721,7.879 -4.958,7.233 -5.076,6.565 -5.076,5.877 V 5.845 c 0,-0.732 0.115,-1.421 0.347,-2.067 C -4.497,3.133 -4.163,2.567 -3.727,2.083 -3.29,1.599 -2.759,1.214 -2.134,0.929 -1.509,0.644 -0.797,0.501 0,0.501 c 0.399,0 0.781,0.041 1.148,0.121 0.367,0.081 0.714,0.189 1.043,0.322 0.329,0.135 0.633,0.288 0.913,0.459 0.281,0.172 0.534,0.355 0.76,0.548 V 5.416 H -0.161 V 5.95 H 4.414 V 1.73 C 3.886,1.245 3.247,0.835 2.498,0.501 1.749,0.167 0.916,0 0,0" /></g><g
           transform="translate(69.147,29.2114)"
           id="g58"><path
             id="path60"
             style="fill:#004253;fill-opacity:1;fill-rule:nonzero;stroke:none"
             d="M 0,0 -2.025,4.943 -4.05,0 Z m -3.528,8.972 h 3.092 L 6.098,-6.38 H 2.591 L 1.198,-2.961 H -5.248 L -6.642,-6.38 h -3.419 z" /></g><g
           transform="translate(83.04,22.6133)"
           id="g62"><path
             id="path64"
             style="fill:#004253;fill-opacity:1;fill-rule:nonzero;stroke:none"
             d="m 0,0 c -1.162,0 -2.301,0.2 -3.418,0.599 -1.119,0.399 -2.135,1.012 -3.049,1.84 l 1.981,2.373 c 0.697,-0.565 1.412,-1.016 2.145,-1.35 0.733,-0.334 1.535,-0.501 2.406,-0.501 0.697,0 1.238,0.127 1.623,0.382 0.384,0.254 0.577,0.606 0.577,1.056 V 4.442 C 2.265,4.66 2.225,4.853 2.145,5.02 2.064,5.186 1.912,5.342 1.686,5.488 1.46,5.633 1.147,5.778 0.747,5.923 c -0.4,0.145 -0.92,0.298 -1.56,0.457 -0.772,0.189 -1.471,0.4 -2.097,0.632 -0.626,0.232 -1.157,0.519 -1.594,0.86 -0.436,0.341 -0.775,0.766 -1.015,1.274 -0.24,0.508 -0.36,1.14 -0.36,1.895 v 0.043 c 0,0.697 0.129,1.325 0.389,1.884 0.26,0.558 0.623,1.041 1.093,1.448 0.468,0.406 1.028,0.718 1.679,0.936 0.651,0.218 1.368,0.327 2.152,0.327 1.118,0 2.145,-0.167 3.081,-0.501 0.937,-0.334 1.797,-0.813 2.581,-1.437 L 3.354,11.215 c -0.683,0.464 -1.351,0.831 -2.004,1.099 -0.653,0.269 -1.306,0.403 -1.96,0.403 -0.653,0 -1.143,-0.127 -1.47,-0.381 -0.326,-0.254 -0.489,-0.57 -0.489,-0.947 v -0.044 c 0,-0.246 0.047,-0.461 0.141,-0.642 0.095,-0.182 0.266,-0.345 0.513,-0.49 C -1.667,10.068 -1.329,9.93 -0.899,9.799 -0.47,9.668 0.072,9.516 0.728,9.342 1.499,9.139 2.187,8.91 2.791,8.656 3.395,8.402 3.904,8.097 4.319,7.742 4.734,7.386 5.047,6.968 5.258,6.489 5.469,6.01 5.575,5.437 5.575,4.769 V 4.726 C 5.575,3.971 5.437,3.299 5.164,2.711 4.89,2.123 4.507,1.629 4.017,1.23 3.526,0.831 2.941,0.526 2.261,0.316 1.581,0.105 0.828,0 0,0" /></g><g
           transform="translate(98.6753,22.5693)"
           id="g66"><path
             id="path68"
             style="fill:#004253;fill-opacity:1;fill-rule:nonzero;stroke:none"
             d="M 0,0 C -1.118,0 -2.156,0.204 -3.114,0.61 -4.072,1.017 -4.899,1.572 -5.596,2.276 -6.293,2.98 -6.838,3.812 -7.229,4.77 -7.622,5.728 -7.817,6.751 -7.817,7.84 v 0.043 c 0,1.089 0.195,2.109 0.588,3.06 0.391,0.951 0.936,1.786 1.633,2.504 0.697,0.719 1.531,1.285 2.504,1.699 0.972,0.414 2.047,0.621 3.222,0.621 0.712,0 1.362,-0.059 1.95,-0.175 0.587,-0.116 1.121,-0.276 1.6,-0.479 0.48,-0.203 0.922,-0.45 1.328,-0.74 0.407,-0.291 0.784,-0.61 1.133,-0.958 L 4.006,10.954 c -0.594,0.537 -1.201,0.958 -1.818,1.263 -0.617,0.304 -1.31,0.457 -2.079,0.457 -0.639,0 -1.231,-0.123 -1.775,-0.37 C -2.21,12.057 -2.678,11.716 -3.07,11.28 -3.462,10.845 -3.767,10.34 -3.985,9.767 -4.203,9.193 -4.312,8.58 -4.312,7.927 V 7.883 c 0,-0.653 0.109,-1.27 0.327,-1.851 0.218,-0.58 0.519,-1.088 0.904,-1.524 0.384,-0.435 0.849,-0.78 1.394,-1.034 0.544,-0.254 1.143,-0.381 1.796,-0.381 0.871,0 1.608,0.159 2.21,0.479 0.602,0.319 1.201,0.755 1.797,1.306 L 6.25,2.723 C 5.858,2.301 5.452,1.924 5.031,1.59 4.609,1.256 4.148,0.97 3.648,0.73 3.146,0.49 2.599,0.309 2.003,0.186 1.408,0.062 0.74,0 0,0" /></g><g
           transform="translate(107.6035,38.0742)"
           id="g70"><path
             id="path72"
             style="fill:#004253;fill-opacity:1;fill-rule:nonzero;stroke:none"
             d="M 0,0 H 11.476 V -2.983 H 3.31 v -3.092 h 7.186 V -9.059 H 3.31 v -3.201 h 8.275 v -2.983 H 0 Z" /></g><g
           transform="translate(122.1934,38.0742)"
           id="g74"><path
             id="path76"
             style="fill:#004253;fill-opacity:1;fill-rule:nonzero;stroke:none"
             d="m 0,0 h 3.092 l 7.142,-9.385 V 0 h 3.311 v -15.243 h -2.853 l -7.382,9.69 v -9.69 H 0 Z" /></g><g
           transform="translate(145.3408,25.8579)"
           id="g78"><path
             id="path80"
             style="fill:#004253;fill-opacity:1;fill-rule:nonzero;stroke:none"
             d="M 0,0 C 0.683,0 1.307,0.109 1.873,0.327 2.439,0.544 2.922,0.856 3.321,1.263 3.721,1.669 4.032,2.148 4.258,2.7 4.482,3.252 4.596,3.869 4.596,4.551 V 4.595 C 4.596,5.262 4.482,5.88 4.258,6.446 4.032,7.012 3.721,7.498 3.321,7.905 2.922,8.311 2.439,8.627 1.873,8.852 1.307,9.077 0.683,9.189 0,9.189 H -2.591 V 0 Z M -5.944,12.216 H 0 c 1.19,0 2.283,-0.192 3.277,-0.576 C 4.271,11.254 5.129,10.721 5.848,10.039 6.565,9.356 7.121,8.554 7.514,7.633 7.905,6.71 8.102,5.712 8.102,4.638 V 4.595 C 8.102,3.521 7.905,2.519 7.514,1.59 7.121,0.661 6.565,-0.145 5.848,-0.828 5.129,-1.51 4.271,-2.047 3.277,-2.439 2.283,-2.831 1.19,-3.027 0,-3.027 h -5.944 z" /></g><path
           id="path82"
           style="fill:#004253;fill-opacity:1;fill-rule:nonzero;stroke:none"
           d="m 156.577,38.074 h 3.354 V 22.831 h -3.354 z" /><g
           transform="translate(163.7422,38.0742)"
           id="g84"><path
             id="path86"
             style="fill:#004253;fill-opacity:1;fill-rule:nonzero;stroke:none"
             d="m 0,0 h 3.092 l 7.142,-9.385 V 0 h 3.311 v -15.243 h -2.854 l -7.381,9.69 v -9.69 H 0 Z" /></g><g
           transform="translate(188.2832,22.5693)"
           id="g88"><path
             id="path90"
             style="fill:#004253;fill-opacity:1;fill-rule:nonzero;stroke:none"
             d="M 0,0 C -1.19,0 -2.275,0.196 -3.255,0.588 -4.235,0.98 -5.077,1.525 -5.781,2.222 -6.485,2.918 -7.033,3.746 -7.426,4.704 -7.817,5.662 -8.014,6.708 -8.014,7.84 v 0.043 c 0,1.089 0.2,2.109 0.599,3.06 0.399,0.951 0.955,1.786 1.666,2.504 0.711,0.719 1.554,1.285 2.526,1.699 0.973,0.414 2.039,0.621 3.202,0.621 0.682,0 1.302,-0.048 1.861,-0.142 0.559,-0.095 1.078,-0.229 1.557,-0.403 0.479,-0.174 0.929,-0.392 1.35,-0.653 0.421,-0.261 0.828,-0.559 1.22,-0.893 L 3.854,11.128 c -0.29,0.247 -0.581,0.464 -0.871,0.653 -0.29,0.189 -0.591,0.349 -0.903,0.479 -0.312,0.131 -0.65,0.233 -1.013,0.305 -0.363,0.073 -0.762,0.109 -1.198,0.109 -0.609,0 -1.18,-0.128 -1.709,-0.382 C -2.37,12.038 -2.835,11.696 -3.233,11.266 -3.633,10.837 -3.945,10.335 -4.17,9.76 -4.396,9.186 -4.508,8.571 -4.508,7.916 V 7.873 c 0,-0.699 0.112,-1.343 0.338,-1.932 0.225,-0.589 0.544,-1.103 0.958,-1.539 0.414,-0.436 0.9,-0.775 1.459,-1.015 0.559,-0.24 1.18,-0.36 1.862,-0.36 1.248,0 2.301,0.307 3.158,0.921 v 2.194 h -3.375 v 2.896 h 6.62 V 2.417 C 5.728,1.75 4.794,1.18 3.713,0.708 2.631,0.236 1.394,0 0,0" /></g><g
           transform="translate(27.2246,1.0244)"
           id="g92"><path
             id="path94"
             style="fill:#00b027;fill-opacity:1;fill-rule:nonzero;stroke:none"
             d="m 0,0 c -11.361,0 -20.604,9.243 -20.604,20.604 0,11.362 9.243,20.605 20.604,20.605 L 0.113,41.208 0.672,41.205 V 37.423 L 0.108,37.426 C 0.084,37.426 0,37.429 0,37.429 c -9.277,0 -16.824,-7.548 -16.824,-16.825 0,-9.277 7.547,-16.824 16.824,-16.824 9.435,0 16.825,7.098 16.825,16.16 0,0.038 -0.006,1.336 -0.006,1.336 h 3.782 l 0.002,-0.558 c 10e-4,-0.037 10e-4,-0.74 10e-4,-0.778 C 20.604,8.759 11.554,0 0,0" /></g><g
           transform="translate(48.0361,24.9434)"
           id="g96"><path
             id="path98"
             style="fill:#004253;fill-opacity:1;fill-rule:nonzero;stroke:none"
             d="m 0,0 -0.003,0.558 c -0.058,9.158 -7.556,16.656 -16.715,16.714 l -0.557,0.004 v 3.781 l 0.564,-0.003 C -5.475,20.992 3.717,11.801 3.778,0.564 L 3.781,0 Z" /></g><g
           transform="translate(29.27,21.5361)"
           id="g100"><path
             id="path102"
             style="fill:#004253;fill-opacity:1;fill-rule:nonzero;stroke:none"
             d="M 0,0 -2.025,4.943 -4.05,0 Z m -3.528,8.972 h 3.092 L 6.098,-6.38 H 2.591 L 1.198,-2.962 H -5.248 L -6.642,-6.38 h -3.419 z" /></g></g></g></g></svg>